<svg width="80" height="80" viewBox="0 0 80 80" fill="none" xmlns="http://www.w3.org/2000/svg">
<path d="M41.208 32.328C47.2124 32.328 52.08 29.1976 52.08 25.336C52.08 21.4744 47.2124 18.344 41.208 18.344C35.2036 18.344 30.336 21.4744 30.336 25.336C30.336 29.1976 35.2036 32.328 41.208 32.328Z" fill="#C8DA52"/>
<path d="M66.056 32.328C72.0605 32.328 76.928 29.1976 76.928 25.336C76.928 21.4744 72.0605 18.344 66.056 18.344C60.0516 18.344 55.184 21.4744 55.184 25.336C55.184 29.1976 60.0516 32.328 66.056 32.328Z" fill="#C8DA52"/>
<path d="M52.168 63.384C56.5023 63.384 60.016 61.1239 60.016 58.336C60.016 55.5481 56.5023 53.288 52.168 53.288C47.8337 53.288 44.32 55.5481 44.32 58.336C44.32 61.1239 47.8337 63.384 52.168 63.384Z" fill="#C8DA52"/>
<path d="M69.336 63.384C73.6703 63.384 77.184 61.1239 77.184 58.336C77.184 55.5481 73.6703 53.288 69.336 53.288C65.0017 53.288 61.488 55.5481 61.488 58.336C61.488 61.1239 65.0017 63.384 69.336 63.384Z" fill="#C8DA52"/>
<path d="M16.36 32.328C22.3644 32.328 27.232 29.1976 27.232 25.336C27.232 21.4744 22.3644 18.344 16.36 18.344C10.3556 18.344 5.48801 21.4744 5.48801 25.336C5.48801 29.1976 10.3556 32.328 16.36 32.328Z" fill="#C8DA52"/>
<path d="M53.632 18.344C59.6364 18.344 64.504 15.2136 64.504 11.352C64.504 7.49043 59.6364 4.36 53.632 4.36C47.6276 4.36 42.76 7.49043 42.76 11.352C42.76 15.2136 47.6276 18.344 53.632 18.344Z" fill="#C8DA52"/>
<path d="M28.784 18.344C34.7884 18.344 39.656 15.2136 39.656 11.352C39.656 7.49043 34.7884 4.36 28.784 4.36C22.7795 4.36 17.912 7.49043 17.912 11.352C17.912 15.2136 22.7795 18.344 28.784 18.344Z" fill="#C8DA52"/>
<path d="M67.28 26.768C67.4541 26.6495 67.5744 26.4671 67.6148 26.2604C67.6553 26.0537 67.6126 25.8394 67.496 25.664C67.3776 25.4922 67.1967 25.3734 66.992 25.333C66.7872 25.2927 66.5748 25.3339 66.4 25.448L38.28 44.44C30.536 31.2 16.064 26.2 15.84 26.128C15.7402 26.0949 15.6349 26.0818 15.53 26.0894C15.4251 26.097 15.3228 26.1252 15.2288 26.1724C15.1348 26.2196 15.0511 26.2848 14.9823 26.3643C14.9135 26.4439 14.8611 26.5362 14.828 26.636C14.7949 26.7358 14.7818 26.8411 14.7894 26.946C14.797 27.0509 14.8252 27.1532 14.8724 27.2472C14.9196 27.3412 14.9848 27.4249 15.0644 27.4937C15.1439 27.5625 15.2362 27.6149 15.336 27.648C21.3001 29.9167 26.727 33.4011 31.272 37.88C40.936 47.568 43.76 60 39.664 74.816C39.6073 75.0197 39.6336 75.2375 39.737 75.4219C39.8404 75.6063 40.0127 75.7422 40.216 75.8C40.2878 75.8079 40.3602 75.8079 40.432 75.8C40.6116 75.8066 40.7881 75.7526 40.9333 75.6467C41.0784 75.5408 41.1836 75.389 41.232 75.216C44.68 62.76 42.928 53.128 39.088 45.824L67.28 26.768Z" fill="#995F5B"/>
<path d="M70.6 59.048C70.5413 58.9607 70.4659 58.8858 70.3782 58.8277C70.2904 58.7696 70.1921 58.7294 70.0888 58.7093C69.9855 58.6892 69.8793 58.6897 69.7762 58.7108C69.6731 58.7319 69.5752 58.773 69.488 58.832L60.584 64.856C58.7384 62.1975 56.1345 60.1569 53.112 59C53.0108 58.9579 52.902 58.9371 52.7924 58.9387C52.6828 58.9404 52.5747 58.9646 52.4749 59.0098C52.375 59.055 52.2855 59.1203 52.2119 59.2015C52.1383 59.2827 52.0822 59.3782 52.047 59.4821C52.0119 59.5859 51.9984 59.6958 52.0075 59.8051C52.0166 59.9143 52.0481 60.0205 52.0999 60.1171C52.1518 60.2137 52.2229 60.2985 52.309 60.3665C52.395 60.4344 52.494 60.4839 52.6 60.512C53.048 60.664 63.488 64.32 60.368 75.592C60.3401 75.6934 60.3324 75.7993 60.3455 75.9036C60.3585 76.008 60.392 76.1087 60.444 76.2001C60.496 76.2915 60.5655 76.3717 60.6486 76.4362C60.7316 76.5007 60.8266 76.5482 60.928 76.576H61.136C61.3156 76.5826 61.4921 76.5286 61.6373 76.4227C61.7824 76.3168 61.8876 76.165 61.936 75.992C63.064 71.912 62.576 68.704 61.392 66.232L70.4 60.16C70.5738 60.0389 70.6924 59.8538 70.7299 59.6453C70.7674 59.4369 70.7207 59.2221 70.6 59.048Z" fill="#995F5B"/>
</svg>
