<svg width="40" height="40" viewBox="0 0 40 40" fill="none" xmlns="http://www.w3.org/2000/svg">
<g clip-path="url(#clip0_227_160)">
<path d="M0 20C0 29.3773 6.448 37.26 15.1667 39.4173C15.5667 39.52 16.0133 39.164 16 38.7507V30C16 29.556 16.2627 29.1307 16.7507 28.8747C17.244 28.628 17.124 27.7333 16.584 27.6253C14.0507 27.1187 11.8907 26.1013 10.3747 24.7493C8.86133 23.396 8 21.752 8 20C8 18.78 8.436 17.6093 9.208 16.5413C9.288 16.432 9.33067 16.3013 9.33333 16.168V9.79067L14.6267 12.624C14.7893 12.712 14.9907 12.7267 15.1667 12.664C16.6507 12.224 18.264 12 20 12C21.736 12 23.3493 12.224 24.8333 12.6667C25.0093 12.7293 25.2107 12.7133 25.3747 12.6267L30.6667 9.79067V16.164C30.6693 16.2973 30.7133 16.4307 30.792 16.54C31.5653 17.6067 32 18.78 32 19.9987C32 21.752 31.14 23.396 29.6267 24.7493C28.1093 26.1013 25.9467 27.1173 23.4173 27.624C22.876 27.7307 22.7573 28.624 23.2507 28.872C23.7373 29.128 24 29.552 24 29.9973V38.748C23.9867 39.1613 24.4347 39.5173 24.8333 39.4147C33.5533 37.26 40 29.376 40 20C40 8.96267 31.0373 0 20 0C8.96267 0 0 8.96267 0 20ZM20 1.33333C30.3173 1.33333 38.6667 9.68267 38.6667 20C38.6667 28.44 33.0133 35.396 25.3333 37.7067V30C25.3333 29.4667 25.128 28.992 24.8333 28.5827C27.0507 27.9733 29.076 27.016 30.54 25.708C32.2747 24.1653 33.3333 22.1867 33.3333 20C33.3333 18.556 32.808 17.2347 32 16.04V8.66667C32.004 8.2 31.4053 7.84933 31 8.084L24.8747 11.3733C23.3547 10.96 21.728 10.6667 20 10.6667C18.2733 10.6667 16.644 10.9573 15.1253 11.3733L9 8.08533C8.59467 7.85067 7.996 8.20133 8 8.668V16.0413C7.192 17.236 6.66667 18.5573 6.66667 20.0013C6.66667 22.188 7.72667 24.1653 9.45867 25.708C10.9253 27.0173 12.952 27.9747 15.1653 28.5853C14.872 28.9933 14.6667 29.4653 14.6667 30.0013V32.252C13.2133 32.7933 12.2573 32.9093 11.6667 32.7933C11.0293 32.668 10.6853 32.34 10.2933 31.7933C9.504 30.696 8.72933 28.6733 6.16667 28.012C5.29467 27.7787 5 29.0787 5.83333 29.3053C7.844 29.8253 8.24 31.236 9.20667 32.5853C9.692 33.2587 10.388 33.8827 11.4173 34.0853C12.2747 34.2533 13.3133 34.1253 14.6667 33.668V37.708C6.98933 35.3973 1.33333 28.44 1.33333 20C1.33333 9.68267 9.68267 1.33333 20 1.33333Z" fill="#42464C"/>
</g>
<defs>
<clipPath id="clip0_227_160">
<rect width="40" height="40" fill="white"/>
</clipPath>
</defs>
</svg>
