<svg width="80" height="80" viewBox="0 0 80 80" fill="none" xmlns="http://www.w3.org/2000/svg">
<path d="M70.065 31.25C69.4889 32.4452 69.1785 33.751 69.1551 35.0776C69.1317 36.4042 69.396 37.7201 69.9297 38.9348L46.8867 66.7708C46.3666 67.399 45.6711 67.8579 44.889 68.0889C44.1069 68.3199 43.2737 68.3125 42.4958 68.0677L14.2122 59.1667C12.4518 58.694 10.8332 57.7989 9.497 56.5592C8.61743 55.445 8.01496 54.1378 7.73917 52.7453C7.43478 50.9302 7.4416 49.0765 7.75934 47.2637C8.81984 42.1227 12.611 43.6357 12.611 43.6357" stroke="black" stroke-linecap="round" stroke-linejoin="round"/>
<path d="M12.611 43.6365L41.453 53.3892C42.2245 53.6501 43.0565 53.6739 43.8417 53.4576C44.6269 53.2412 45.3293 52.7946 45.8583 52.1753L72.1187 21.435C72.3043 21.2176 72.4305 20.9558 72.485 20.6752C72.5395 20.3945 72.5205 20.1045 72.4297 19.8334C72.3389 19.5623 72.1795 19.3193 71.9669 19.1281C71.7544 18.9369 71.496 18.8039 71.2168 18.7422L40.0433 11.8532C39.2299 11.6734 38.3828 11.7184 37.593 11.9833C36.8032 12.2483 36.1004 12.7233 35.56 13.3573L9.1855 44.302" stroke="black" stroke-linecap="round" stroke-linejoin="round"/>
<path d="M32.9128 25.1863L53.9552 31.1903L59.2377 25.235L37.5525 20.048L32.9128 25.1863Z" stroke="black" stroke-linejoin="round"/>
</svg>
