<svg width="40" height="40" viewBox="0 0 40 40" fill="none" xmlns="http://www.w3.org/2000/svg">
<path d="M13.0333 11.8417C13.3785 11.8417 13.6583 11.5618 13.6583 11.2167C13.6583 10.8715 13.3785 10.5917 13.0333 10.5917C12.6882 10.5917 12.4083 10.8715 12.4083 11.2167C12.4083 11.5618 12.6882 11.8417 13.0333 11.8417Z" fill="black"/>
<path d="M13.0333 14.1083V26.5917" stroke="black" stroke-linecap="round" stroke-linejoin="round"/>
<path d="M27.5917 26.5917V18.5833C27.5895 17.2977 27.0778 16.0654 26.1687 15.1563C25.2596 14.2472 24.0273 13.7355 22.7417 13.7333C21.4546 13.7333 20.2201 14.244 19.3092 15.1534C18.3984 16.0627 17.8855 17.2963 17.8833 18.5833V26.5917" stroke="black" stroke-linecap="round" stroke-linejoin="round"/>
<path d="M17.8833 18.5833V14.1083" stroke="black" stroke-linecap="round" stroke-linejoin="round"/>
<path d="M33.75 4.58334H6.24999C5.80797 4.58334 5.38404 4.75893 5.07148 5.07149C4.75892 5.38405 4.58333 5.80798 4.58333 6.25V33.75C4.58333 34.192 4.75892 34.616 5.07148 34.9285C5.38404 35.2411 5.80797 35.4167 6.24999 35.4167H33.75C34.192 35.4167 34.6159 35.2411 34.9285 34.9285C35.2411 34.616 35.4167 34.192 35.4167 33.75V6.25C35.4167 5.80798 35.2411 5.38405 34.9285 5.07149C34.6159 4.75893 34.192 4.58334 33.75 4.58334Z" stroke="black" stroke-linecap="round" stroke-linejoin="round"/>
</svg>
